<svg width="138" height="60" viewBox="0 0 138 60" fill="none" xmlns="http://www.w3.org/2000/svg">
<path d="M5.31686 59.1428C4.28458 59.1428 3.2834 59.0058 2.3133 58.7316C1.35565 58.445 0.584544 58.0774 0 57.6288L1.02606 55.3485C1.58573 55.7597 2.25112 56.0899 3.02222 56.3391C3.79332 56.5884 4.56442 56.713 5.33552 56.713C6.19368 56.713 6.82797 56.5884 7.2384 56.3391C7.64882 56.0775 7.85404 55.7348 7.85404 55.3111C7.85404 54.9996 7.72966 54.7441 7.48092 54.5448C7.24462 54.3329 6.93369 54.1647 6.54814 54.0401C6.17502 53.9155 5.6651 53.7784 5.01837 53.6289C4.02341 53.3921 3.20877 53.1554 2.57448 52.9186C1.94019 52.6818 1.39296 52.3018 0.932783 51.7784C0.485047 51.2551 0.261179 50.5573 0.261179 49.685C0.261179 48.9249 0.466392 48.2395 0.876816 47.6289C1.28724 47.0059 1.90288 46.5137 2.72373 46.1523C3.55701 45.791 4.57064 45.6103 5.7646 45.6103C6.59789 45.6103 7.41252 45.71 8.20849 45.9093C9.00447 46.1087 9.70095 46.3953 10.2979 46.7691L9.36514 49.0682C8.15874 48.3828 6.95234 48.0402 5.74595 48.0402C4.90022 48.0402 4.27215 48.1772 3.86172 48.4514C3.46374 48.7255 3.26474 49.0869 3.26474 49.5355C3.26474 49.9841 3.49483 50.3205 3.955 50.5448C4.42761 50.7566 5.14275 50.9685 6.1004 51.1803C7.09537 51.4171 7.91 51.6538 8.54429 51.8906C9.17859 52.1273 9.7196 52.5012 10.1673 53.0121C10.6275 53.523 10.8576 54.2145 10.8576 55.0868C10.8576 55.8345 10.6462 56.5198 10.2233 57.1429C9.81288 57.7535 9.19102 58.2394 8.35774 58.6008C7.52445 58.9622 6.51083 59.1428 5.31686 59.1428Z" fill="url(#paint0_linear_109_452)"/>
<path d="M15.4923 48.3018H11.3134V45.8346H22.6934V48.3018H18.5145V58.9185H15.4923V48.3018Z" fill="url(#paint1_linear_109_452)"/>
<path d="M30.9181 56.1148H24.855L23.6984 58.9185H20.6015L26.4221 45.8346H29.407L35.2462 58.9185H32.0748L30.9181 56.1148ZM29.9667 53.8158L27.8959 48.8065L25.8251 53.8158H29.9667Z" fill="url(#paint2_linear_109_452)"/>
<path d="M44.4272 58.9185L41.9087 55.2737H39.129V58.9185H36.1068V45.8346H41.7595C42.9161 45.8346 43.9173 46.0277 44.7631 46.414C45.6212 46.8003 46.2804 47.3486 46.7406 48.0588C47.2007 48.7691 47.4308 49.6102 47.4308 50.5822C47.4308 51.5541 47.1945 52.3952 46.7219 53.1055C46.2617 53.8033 45.6026 54.3392 44.7444 54.713L47.6733 58.9185H44.4272ZM44.3713 50.5822C44.3713 49.847 44.135 49.2862 43.6624 48.9C43.1898 48.5012 42.4995 48.3018 41.5916 48.3018H39.129V52.8625H41.5916C42.4995 52.8625 43.1898 52.6632 43.6624 52.2644C44.135 51.8657 44.3713 51.3049 44.3713 50.5822Z" fill="url(#paint3_linear_109_452)"/>
<path d="M51.9925 48.3018H47.8137V45.8346H59.1936V48.3018H55.0147V58.9185H51.9925V48.3018Z" fill="url(#paint4_linear_109_452)"/>
<path d="M67.501 59.1428C66.1702 59.1428 64.9638 58.8562 63.8818 58.283C62.8122 57.6974 61.9665 56.8936 61.3446 55.8718C60.7352 54.8376 60.4305 53.6725 60.4305 52.3766C60.4305 51.0806 60.7352 49.9218 61.3446 48.9C61.9665 47.8657 62.8122 47.062 63.8818 46.4888C64.9638 45.9031 66.1764 45.6103 67.5197 45.6103C68.6514 45.6103 69.6713 45.8096 70.5792 46.2084C71.4995 46.6071 72.2706 47.1803 72.8925 47.928L70.9523 49.7224C70.0693 48.7006 68.9748 48.1897 67.6689 48.1897C66.8605 48.1897 66.1391 48.3704 65.5048 48.7317C64.8705 49.0806 64.3731 49.5728 64.0124 50.2084C63.6641 50.8439 63.49 51.5666 63.49 52.3766C63.49 53.1865 63.6641 53.9093 64.0124 54.5448C64.3731 55.1803 64.8705 55.6787 65.5048 56.0401C66.1391 56.389 66.8605 56.5634 67.6689 56.5634C68.9748 56.5634 70.0693 56.0463 70.9523 55.012L72.8925 56.8064C72.2706 57.5665 71.4995 58.146 70.5792 58.5447C69.6588 58.9435 68.6328 59.1428 67.501 59.1428Z" fill="url(#paint5_linear_109_452)"/>
<path d="M80.1479 59.1428C78.7923 59.1428 77.5672 58.85 76.4727 58.2643C75.3907 57.6787 74.5388 56.875 73.9169 55.8532C73.3075 54.8189 73.0028 53.66 73.0028 52.3766C73.0028 51.0931 73.3075 49.9404 73.9169 48.9186C74.5388 47.8844 75.3907 47.0744 76.4727 46.4888C77.5672 45.9031 78.7923 45.6103 80.1479 45.6103C81.5036 45.6103 82.7224 45.9031 83.8044 46.4888C84.8865 47.0744 85.7384 47.8844 86.3603 48.9186C86.9821 49.9404 87.293 51.0931 87.293 52.3766C87.293 53.66 86.9821 54.8189 86.3603 55.8532C85.7384 56.875 84.8865 57.6787 83.8044 58.2643C82.7224 58.85 81.5036 59.1428 80.1479 59.1428ZM80.1479 56.5634C80.919 56.5634 81.6155 56.389 82.2374 56.0401C82.8592 55.6787 83.3443 55.1803 83.6925 54.5448C84.0532 53.9093 84.2335 53.1865 84.2335 52.3766C84.2335 51.5666 84.0532 50.8439 83.6925 50.2084C83.3443 49.5728 82.8592 49.0806 82.2374 48.7317C81.6155 48.3704 80.919 48.1897 80.1479 48.1897C79.3768 48.1897 78.6803 48.3704 78.0585 48.7317C77.4366 49.0806 76.9454 49.5728 76.5847 50.2084C76.2364 50.8439 76.0623 51.5666 76.0623 52.3766C76.0623 53.1865 76.2364 53.9093 76.5847 54.5448C76.9454 55.1803 77.4366 55.6787 78.0585 56.0401C78.6803 56.389 79.3768 56.5634 80.1479 56.5634Z" fill="url(#paint6_linear_109_452)"/>
<path d="M88.8293 45.8346H94.7618C96.1796 45.8346 97.4296 46.1087 98.5116 46.657C99.606 47.1928 100.452 47.9529 101.049 48.9373C101.658 49.9218 101.963 51.0682 101.963 52.3766C101.963 53.685 101.658 54.8314 101.049 55.8158C100.452 56.8002 99.606 57.5665 98.5116 58.1148C97.4296 58.6506 96.1796 58.9185 94.7618 58.9185H88.8293V45.8346ZM94.6125 56.4326C95.9184 56.4326 96.9569 56.0712 97.728 55.3485C98.5116 54.6133 98.9034 53.6227 98.9034 52.3766C98.9034 51.1305 98.5116 50.146 97.728 49.4233C96.9569 48.6881 95.9184 48.3205 94.6125 48.3205H91.8515V56.4326H94.6125Z" fill="url(#paint7_linear_109_452)"/>
<path d="M113.338 56.4887V58.9185H103.227V45.8346H113.095V48.2644H106.23V51.1055H112.293V53.4607H106.23V56.4887H113.338Z" fill="url(#paint8_linear_109_452)"/>
<path d="M122.903 58.9185L120.384 55.2737H117.604V58.9185H114.582V45.8346H120.235C121.392 45.8346 122.393 46.0277 123.238 46.414C124.097 46.8003 124.756 47.3486 125.216 48.0588C125.676 48.7691 125.906 49.6102 125.906 50.5822C125.906 51.5541 125.67 52.3952 125.197 53.1055C124.737 53.8033 124.078 54.3392 123.22 54.713L126.149 58.9185H122.903ZM122.847 50.5822C122.847 49.847 122.61 49.2862 122.138 48.9C121.665 48.5012 120.975 48.3018 120.067 48.3018H117.604V52.8625H120.067C120.975 52.8625 121.665 52.6632 122.138 52.2644C122.61 51.8657 122.847 51.3049 122.847 50.5822Z" fill="url(#paint9_linear_109_452)"/>
<path d="M132.459 59.1428C131.427 59.1428 130.426 59.0058 129.456 58.7316C128.498 58.445 127.727 58.0774 127.142 57.6288L128.168 55.3485C128.728 55.7597 129.393 56.0899 130.165 56.3391C130.936 56.5884 131.707 56.713 132.478 56.713C133.336 56.713 133.97 56.5884 134.381 56.3391C134.791 56.0775 134.996 55.7348 134.996 55.3111C134.996 54.9996 134.872 54.7441 134.623 54.5448C134.387 54.3329 134.076 54.1647 133.69 54.0401C133.317 53.9155 132.807 53.7784 132.161 53.6289C131.166 53.3921 130.351 53.1554 129.717 52.9186C129.083 52.6818 128.535 52.3018 128.075 51.7784C127.627 51.2551 127.404 50.5573 127.404 49.685C127.404 48.9249 127.609 48.2395 128.019 47.6289C128.43 47.0059 129.045 46.5137 129.866 46.1523C130.699 45.791 131.713 45.6103 132.907 45.6103C133.74 45.6103 134.555 45.71 135.351 45.9093C136.147 46.1087 136.843 46.3953 137.44 46.7691L136.507 49.0682C135.301 48.3828 134.095 48.0402 132.888 48.0402C132.043 48.0402 131.415 48.1772 131.004 48.4514C130.606 48.7255 130.407 49.0869 130.407 49.5355C130.407 49.9841 130.637 50.3205 131.097 50.5448C131.57 50.7566 132.285 50.9685 133.243 51.1803C134.238 51.4171 135.052 51.6538 135.687 51.8906C136.321 52.1273 136.862 52.5012 137.31 53.0121C137.77 53.523 138 54.2145 138 55.0868C138 55.8345 137.789 56.5198 137.366 57.1429C136.955 57.7535 136.333 58.2394 135.5 58.6008C134.667 58.9622 133.653 59.1428 132.459 59.1428Z" fill="url(#paint10_linear_109_452)"/>
<path fill-rule="evenodd" clip-rule="evenodd" d="M44.2917 4.87602C44.2917 2.18307 46.4706 0 49.1584 0H88.7003C91.3881 0 93.567 2.18307 93.567 4.87602V16.8629C93.567 17.7606 94.2933 18.4882 95.1892 18.4882H97.0143V21.1294H95.1892C94.2933 21.1294 93.567 21.8571 93.567 22.7548V34.7681C93.567 37.4507 91.4042 39.6294 88.7268 39.644H74.7086C74.7086 39.644 66.2932 39.4694 62.6432 37.7892C60.7817 36.9322 59.3112 35.8591 59.196 33.8274C59.0866 31.8973 61.021 30.0688 61.021 30.0688C61.021 30.0688 62.1363 30.9758 63.9613 30.7799C66.8002 30.4751 69.1322 29.3577 69.1322 29.3577C69.1322 29.3577 70.0493 30.9179 70.4502 31.9989C70.9588 33.3703 71.2613 35.6559 71.2613 35.6559C71.2613 35.6559 74.5983 32.6065 75.8239 30.0688C77.3447 26.9197 76.9391 24.1769 76.9391 24.1769C76.9391 24.1769 82.239 19.4025 84.3406 14.5265C87.3615 7.5172 85.9628 3.25068 85.9628 3.25068C85.9628 3.25068 80.6649 1.47946 73.3905 5.38394C67.7127 8.43145 65.0766 12.19 65.0766 12.19C65.0766 12.19 61.6293 11.8853 58.5876 13.6122C55.7249 15.2376 53.5182 17.8787 53.5182 17.8787C53.5182 17.8787 55.9008 18.1819 57.2696 18.6914C58.3485 19.093 59.9057 20.012 59.9057 20.012C59.9057 20.012 58.5931 23.402 58.4863 25.1928C58.3954 26.7162 59.0946 28.2403 59.0946 28.2403C59.0946 28.2403 56.9654 30.272 54.7348 31.0846C53.5702 31.5089 52.3853 31.7981 51.2546 32.0741C49.1675 32.5834 47.2648 33.0477 46.0153 34.2337C45.1224 35.0813 44.6973 36.4686 44.6973 36.4686C44.6973 36.4686 44.1903 33.3172 44.1903 31.2878C44.1903 28.8329 44.2416 24.7357 44.2712 22.5711C44.2821 21.7773 43.643 21.1294 42.8506 21.1294H41.0473V18.4882H42.8723C43.6562 18.4882 44.2917 17.8515 44.2917 17.0661V4.87602ZM45.6098 17.6756C45.6098 18.3257 45.407 18.6914 45.3056 18.793C45.7788 18.8268 46.6952 18.8229 47.0292 18.4882C47.2964 18.2205 47.3334 17.7079 47.3334 17.4193V10.8695C47.3334 10.26 47.4348 9.3457 47.739 8.63462C47.9823 8.06575 48.5839 7.72036 48.8543 7.61878C47.3334 7.61878 46.4209 8.22828 46.0153 8.83779C45.6909 9.32539 45.6098 10.3591 45.6098 10.8151V17.6756ZM45.3056 20.9401C45.407 21.0416 45.6098 21.4073 45.6098 22.0575V28.918C45.6098 29.3739 45.6909 30.4077 46.0153 30.8953C46.4209 31.5048 47.3334 32.1143 48.8543 32.1143C48.5839 32.0127 47.9823 31.6673 47.739 31.0984C47.4348 30.3873 47.3334 29.4731 47.3334 28.8636V22.3138C47.3334 22.0252 47.2964 21.5125 47.0292 21.2448C46.6952 20.9101 45.7788 20.9062 45.3056 20.9401ZM92.3503 17.6756C92.3503 18.3257 92.5531 18.6914 92.6545 18.793C92.1814 18.8268 91.2649 18.8229 90.9309 18.4882C90.6637 18.2205 90.6267 17.7079 90.6267 17.4193V10.8695C90.6267 10.26 90.5253 9.3457 90.2212 8.63462C89.9778 8.06575 89.3762 7.72036 89.1059 7.61878C90.6267 7.61878 91.5392 8.22828 91.9448 8.83779C92.2692 9.32539 92.3503 10.3591 92.3503 10.8151V17.6756ZM92.6545 20.9401C92.5531 21.0416 92.3503 21.4073 92.3503 22.0575V28.918C92.3503 29.3739 92.2692 30.4077 91.9448 30.8953C91.5392 31.5048 90.6267 32.1143 89.1059 32.1143C89.3762 32.0127 89.9778 31.6673 90.2212 31.0984C90.5253 30.3873 90.6267 29.4731 90.6267 28.8636V22.3138C90.6267 22.0252 90.6637 21.5125 90.9309 21.2448C91.2649 20.9101 92.1814 20.9062 92.6545 20.9401Z" fill="url(#paint11_linear_109_452)"/>
<path d="M78.7642 14.4249C78.7642 16.669 76.9484 18.4882 74.7086 18.4882C72.4687 18.4882 70.653 16.669 70.653 14.4249C70.653 12.1808 72.4687 10.3615 74.7086 10.3615C76.9484 10.3615 78.7642 12.1808 78.7642 14.4249Z" fill="url(#paint12_linear_109_452)"/>
<defs>
<linearGradient id="paint0_linear_109_452" x1="29.5968" y1="45.6103" x2="29.5968" y2="59.1428" gradientUnits="userSpaceOnUse">
<stop offset="0.219871" stop-color="#4EB2E0"/>
<stop offset="1" stop-color="#357FBF"/>
</linearGradient>
<linearGradient id="paint1_linear_109_452" x1="29.5968" y1="45.6103" x2="29.5968" y2="59.1428" gradientUnits="userSpaceOnUse">
<stop offset="0.219871" stop-color="#4EB2E0"/>
<stop offset="1" stop-color="#357FBF"/>
</linearGradient>
<linearGradient id="paint2_linear_109_452" x1="29.5968" y1="45.6103" x2="29.5968" y2="59.1428" gradientUnits="userSpaceOnUse">
<stop offset="0.219871" stop-color="#4EB2E0"/>
<stop offset="1" stop-color="#357FBF"/>
</linearGradient>
<linearGradient id="paint3_linear_109_452" x1="29.5968" y1="45.6103" x2="29.5968" y2="59.1428" gradientUnits="userSpaceOnUse">
<stop offset="0.219871" stop-color="#4EB2E0"/>
<stop offset="1" stop-color="#357FBF"/>
</linearGradient>
<linearGradient id="paint4_linear_109_452" x1="29.5968" y1="45.6103" x2="29.5968" y2="59.1428" gradientUnits="userSpaceOnUse">
<stop offset="0.219871" stop-color="#4EB2E0"/>
<stop offset="1" stop-color="#357FBF"/>
</linearGradient>
<linearGradient id="paint5_linear_109_452" x1="99.2448" y1="45.5095" x2="99.2151" y2="59.1428" gradientUnits="userSpaceOnUse">
<stop stop-color="#69569B"/>
<stop offset="1" stop-color="#9A599A"/>
</linearGradient>
<linearGradient id="paint6_linear_109_452" x1="99.2448" y1="45.5095" x2="99.2151" y2="59.1428" gradientUnits="userSpaceOnUse">
<stop stop-color="#69569B"/>
<stop offset="1" stop-color="#9A599A"/>
</linearGradient>
<linearGradient id="paint7_linear_109_452" x1="99.2448" y1="45.5095" x2="99.2151" y2="59.1428" gradientUnits="userSpaceOnUse">
<stop stop-color="#69569B"/>
<stop offset="1" stop-color="#9A599A"/>
</linearGradient>
<linearGradient id="paint8_linear_109_452" x1="99.2448" y1="45.5095" x2="99.2151" y2="59.1428" gradientUnits="userSpaceOnUse">
<stop stop-color="#69569B"/>
<stop offset="1" stop-color="#9A599A"/>
</linearGradient>
<linearGradient id="paint9_linear_109_452" x1="99.2448" y1="45.5095" x2="99.2151" y2="59.1428" gradientUnits="userSpaceOnUse">
<stop stop-color="#69569B"/>
<stop offset="1" stop-color="#9A599A"/>
</linearGradient>
<linearGradient id="paint10_linear_109_452" x1="99.2448" y1="45.5095" x2="99.2151" y2="59.1428" gradientUnits="userSpaceOnUse">
<stop stop-color="#69569B"/>
<stop offset="1" stop-color="#9A599A"/>
</linearGradient>
<linearGradient id="paint11_linear_109_452" x1="90.4239" y1="-0.711088" x2="46.141" y2="39.7364" gradientUnits="userSpaceOnUse">
<stop stop-color="#69569B"/>
<stop offset="1" stop-color="#9A599A"/>
</linearGradient>
<linearGradient id="paint12_linear_109_452" x1="90.4239" y1="-0.711088" x2="46.141" y2="39.7364" gradientUnits="userSpaceOnUse">
<stop stop-color="#69569B"/>
<stop offset="1" stop-color="#9A599A"/>
</linearGradient>
</defs>
</svg>
